<?xml version="1.0" standalone="no"?>
<!DOCTYPE svg PUBLIC "-//W3C//DTD SVG 20010904//EN"
 "http://www.w3.org/TR/2001/REC-SVG-20010904/DTD/svg10.dtd">
<svg version="1.0" xmlns="http://www.w3.org/2000/svg"
 width="349.000000pt" height="349.000000pt" viewBox="0 0 349.000000 349.000000"
 preserveAspectRatio="xMidYMid meet">
<metadata>
Created by potrace 1.14, written by Peter Selinger 2001-2017
</metadata>
<g transform="translate(0.000000,349.000000) scale(0.100000,-0.100000)"
fill="#000000" stroke="none">
<path d="M723 3414 c-259 -38 -483 -220 -564 -457 -29 -84 -36 -229 -16 -324
48 -223 194 -376 437 -456 41 -14 156 -42 255 -62 311 -64 431 -113 545 -225
32 -31 69 -81 87 -116 l30 -61 25 41 c116 194 189 451 191 670 1 292 -98 550
-286 740 -191 194 -453 287 -704 250z"/>
<path d="M2473 3341 c-273 -74 -492 -304 -572 -602 -20 -72 -22 -85 -37 -179
-9 -63 -11 -298 -3 -378 4 -37 10 -101 13 -142 4 -41 9 -82 11 -90 2 -8 6 -46
10 -85 3 -38 8 -83 10 -100 10 -62 14 -433 5 -493 -23 -151 -49 -259 -85 -362
-29 -79 -103 -229 -133 -268 l-18 -24 -45 44 c-86 82 -144 189 -193 354 -15
50 -28 99 -30 110 -25 126 -81 294 -130 389 -153 299 -544 413 -858 251 -36
-19 -79 -45 -94 -58 -15 -13 -42 -36 -60 -51 -48 -41 -135 -162 -171 -237 -70
-148 -92 -305 -67 -473 48 -329 263 -610 594 -777 88 -44 243 -101 315 -115
62 -12 74 -14 122 -21 26 -3 57 -8 68 -11 30 -6 304 -5 350 2 22 3 55 8 73 11
17 3 48 7 68 10 190 24 558 170 778 308 396 250 738 652 906 1066 12 30 28 69
35 85 34 80 98 312 110 396 3 24 11 73 18 109 17 90 16 544 -1 634 -45 236
-173 442 -358 573 -50 35 -164 89 -239 113 -103 32 -294 37 -392 11z"/>
</g>
</svg>
